<?xml version="1.0" encoding="UTF-8"?>
<svg id="Ebene_2" data-name="Ebene 2" xmlns="http://www.w3.org/2000/svg" viewBox="0 0 250.93 81.59">
  <defs>
    <style>
      .cls-1 {
        fill: #1e294d;
      }

      .cls-2 {
        fill: #213979;
        opacity: .6;
      }
    </style>
  </defs>
  <g id="Ebene_1-2" data-name="Ebene 1">
    <path class="cls-1" d="M89.71,0v74.89h-14.84V0h14.84Z"/>
    <path class="cls-1" d="M22.42,6.15l.03-.02L18.91,0H0v74.89h13.66V30.07c0-.88-.07-1.96-.22-3.24-.04-.4-.07-1.24-.11-2.52l29.31,50.59h14.97v-7.79L22.42,6.15Z"/>
    <g>
      <path class="cls-1" d="M101.04,42.58v-19.1h4.24l8.44,11.92v-11.92h4.4v19.1h-4.13l-8.58-11.79v11.79h-4.37Z"/>
      <path class="cls-1" d="M125.92,42.79c-.67,0-1.3-.09-1.89-.27-.59-.18-1.12-.45-1.59-.81-.47-.36-.84-.81-1.11-1.35-.27-.54-.4-1.17-.4-1.89,0-1.03.21-1.84.63-2.44.42-.6,1-1.05,1.73-1.35s1.56-.49,2.5-.58c.93-.09,1.91-.13,2.91-.13h1.35c0-.45-.08-.84-.26-1.17-.17-.33-.43-.6-.77-.8-.34-.2-.76-.3-1.27-.3-.36,0-.7.05-1.01.15-.31.1-.58.23-.78.4-.21.17-.35.38-.42.63h-4.29c.13-.85.39-1.57.8-2.17s.91-1.09,1.51-1.47c.6-.38,1.28-.66,2.04-.85.76-.19,1.53-.28,2.32-.28,2.09,0,3.64.58,4.67,1.75,1.03,1.17,1.54,2.86,1.54,5.07v7.63h-3.91l-.03-1.86c-.45.68-.96,1.17-1.54,1.46s-1.12.46-1.62.53c-.5.06-.87.09-1.11.09ZM126.99,39.48c.54,0,1.04-.12,1.51-.36s.85-.56,1.15-.94c.3-.39.45-.8.45-1.25v-.22h-2.64c-.29,0-.57.02-.85.05-.28.04-.53.1-.74.2-.22.1-.39.24-.51.42-.13.18-.19.41-.19.7,0,.31.08.56.24.77s.38.36.66.47c.28.11.59.16.93.16Z"/>
      <path class="cls-1" d="M143.51,42.58c-1.22,0-2.26-.14-3.1-.42-.85-.28-1.49-.76-1.93-1.46s-.66-1.67-.66-2.93v-5.61h-2.05v-3.8h2.05v-3.67h4.29v3.67h2.83v3.8h-2.83v4.99c0,.47.08.85.24,1.15.16.3.58.44,1.24.44h1.21v3.83h-1.29Z"/>
      <path class="cls-1" d="M148.85,27.17c-.79,0-1.43-.23-1.9-.7s-.71-1.08-.71-1.83.25-1.4.76-1.89c.5-.49,1.13-.73,1.89-.73s1.33.23,1.83.7.76,1.1.76,1.89-.24,1.39-.73,1.86-1.12.7-1.89.7ZM146.69,42.58v-14.22h4.29v14.22h-4.29Z"/>
      <path class="cls-1" d="M157.1,42.58l-4.83-14.22h4.67l3.05,10.85,3.02-10.85h4.64l-4.83,14.22h-5.72Z"/>
      <path class="cls-1" d="M175.58,42.79c-1.47,0-2.75-.3-3.82-.89-1.07-.59-1.89-1.43-2.47-2.52-.58-1.09-.86-2.37-.86-3.84s.3-2.77.89-3.88c.59-1.11,1.42-1.99,2.5-2.62s2.33-.94,3.79-.94c1.06,0,2,.17,2.82.51s1.52.83,2.1,1.46c.58.63,1.02,1.38,1.32,2.24s.45,1.81.45,2.83c-.02.27-.04.54-.05.8-.02.26-.06.53-.13.8h-9.44c.05.45.19.86.4,1.24.22.38.52.67.92.89s.9.32,1.51.32c.43,0,.82-.05,1.17-.15.35-.1.64-.24.88-.43.23-.19.39-.4.46-.63h4.21c-.23,1.13-.68,2.06-1.35,2.77-.67.71-1.46,1.23-2.37,1.56s-1.89.5-2.91.5ZM172.75,33.84h5.48c0-.38-.09-.75-.28-1.11-.19-.36-.48-.65-.88-.88-.4-.22-.91-.34-1.54-.34s-1.12.12-1.54.35c-.41.23-.72.53-.92.89-.2.36-.31.72-.32,1.08Z"/>
      <path class="cls-1" d="M101.04,74.95v-19.1h4.37v19.1h-4.37Z"/>
      <path class="cls-1" d="M108.7,74.95v-14.22h3.97l.24,1.46c.41-.47.88-.83,1.39-1.08.51-.25,1.02-.42,1.54-.51s.96-.13,1.34-.13c1.35,0,2.41.3,3.17.9.76.6,1.31,1.41,1.63,2.42.32,1.01.49,2.11.49,3.32v7.85h-4.26v-7.39c0-.38-.04-.75-.11-1.12-.07-.37-.19-.71-.36-1.03-.17-.31-.41-.57-.72-.75-.31-.19-.7-.28-1.19-.28-.63,0-1.16.15-1.59.46-.43.31-.75.71-.94,1.23-.2.51-.3,1.08-.3,1.71v7.18h-4.29Z"/>
      <path class="cls-1" d="M131.1,75.14c-1.64,0-2.87-.46-3.7-1.39-.83-.93-1.24-2.18-1.24-3.76v-5.45h-2.05v-3.8h2.05v-3.7h4.29v3.7h4.29v3.8h-4.29v4.51c0,.43.06.8.19,1.11s.33.54.61.71c.28.17.64.26,1.09.26s.82-.07,1.11-.2c.29-.13.53-.28.73-.45l1.21,3.35c-.38.32-.82.58-1.34.78-.51.2-1.02.34-1.52.42-.5.08-.98.12-1.43.12Z"/>
      <path class="cls-1" d="M143.34,75.17c-1.47,0-2.75-.3-3.82-.89-1.07-.59-1.89-1.43-2.47-2.52-.58-1.09-.86-2.37-.86-3.84s.3-2.77.89-3.89c.59-1.11,1.42-1.99,2.5-2.62s2.33-.94,3.79-.94c1.06,0,2,.17,2.82.51s1.52.83,2.1,1.46c.58.63,1.02,1.38,1.32,2.24.3.86.45,1.81.45,2.83-.02.27-.04.54-.05.8-.02.26-.06.53-.13.8h-9.44c.05.45.19.86.4,1.24s.52.67.92.89.9.32,1.51.32c.43,0,.82-.05,1.17-.15.35-.1.64-.24.88-.43.23-.19.39-.4.46-.63h4.21c-.23,1.13-.68,2.05-1.35,2.77-.67.71-1.46,1.23-2.37,1.56s-1.89.5-2.91.5ZM140.51,66.21h5.48c0-.38-.09-.75-.28-1.11-.19-.36-.48-.65-.88-.88-.4-.22-.91-.34-1.54-.34s-1.12.12-1.54.35c-.41.23-.72.53-.92.89-.2.36-.31.72-.32,1.08Z"/>
      <path class="cls-1" d="M152.25,74.95v-19.1h4.29v19.1h-4.29Z"/>
      <path class="cls-1" d="M159.29,74.95v-19.1h4.29v19.1h-4.29Z"/>
      <path class="cls-1" d="M168.49,59.55c-.79,0-1.43-.23-1.9-.7-.48-.47-.71-1.08-.71-1.83s.25-1.4.76-1.89c.5-.49,1.13-.73,1.89-.73s1.33.23,1.83.7c.5.47.76,1.1.76,1.89s-.24,1.39-.73,1.86c-.49.47-1.12.7-1.89.7ZM166.33,74.95v-14.22h4.29v14.22h-4.29Z"/>
      <path class="cls-1" d="M180.44,81.59c-1.15,0-2.22-.18-3.2-.55-.98-.37-1.8-.95-2.47-1.74-.67-.79-1.12-1.82-1.35-3.08h4.34c.11.31.28.57.53.78.24.22.54.38.9.5.36.12.76.17,1.19.17.81,0,1.42-.17,1.85-.51s.71-.8.86-1.36c.15-.57.23-1.16.23-1.79v-.7c-.34.52-.75.91-1.23,1.16s-.97.43-1.48.53c-.51.1-.98.15-1.42.15-1.51,0-2.74-.33-3.68-1-.94-.67-1.63-1.54-2.05-2.63-.42-1.09-.63-2.25-.63-3.49,0-1.38.25-2.65.76-3.79.5-1.14,1.25-2.05,2.23-2.73.98-.67,2.2-1.01,3.66-1.01.88,0,1.64.14,2.28.42.64.28,1.19.66,1.66,1.15l.38-1.32h3.88v11.84c0,1.87-.22,3.48-.66,4.82-.44,1.34-1.19,2.37-2.24,3.1-1.05.73-2.5,1.09-4.33,1.09ZM180.19,71.31c.74,0,1.34-.16,1.81-.49.47-.32.82-.75,1.05-1.29.23-.54.35-1.12.35-1.73,0-.65-.11-1.23-.34-1.75-.22-.52-.57-.94-1.02-1.25-.46-.31-1.05-.47-1.77-.47-.81,0-1.45.19-1.92.57-.47.38-.8.84-.99,1.39-.19.55-.28,1.09-.28,1.63,0,.58.1,1.12.3,1.65s.53.94.99,1.27c.46.32,1.07.49,1.82.49Z"/>
      <path class="cls-1" d="M197.03,75.17c-1.47,0-2.75-.3-3.82-.89-1.07-.59-1.89-1.43-2.47-2.52-.58-1.09-.86-2.37-.86-3.84s.3-2.77.89-3.89c.59-1.11,1.42-1.99,2.5-2.62s2.33-.94,3.79-.94c1.06,0,2,.17,2.82.51s1.52.83,2.1,1.46c.58.63,1.02,1.38,1.32,2.24.3.86.45,1.81.45,2.83-.02.27-.04.54-.05.8-.02.26-.06.53-.13.8h-9.44c.05.45.19.86.4,1.24s.52.67.92.89.9.32,1.51.32c.43,0,.82-.05,1.17-.15.35-.1.64-.24.88-.43.23-.19.39-.4.46-.63h4.21c-.23,1.13-.68,2.05-1.35,2.77-.67.71-1.46,1.23-2.37,1.56s-1.89.5-2.91.5ZM194.2,66.21h5.48c0-.38-.09-.75-.28-1.11-.19-.36-.48-.65-.88-.88-.4-.22-.91-.34-1.54-.34s-1.12.12-1.54.35c-.41.23-.72.53-.92.89-.2.36-.31.72-.32,1.08Z"/>
      <path class="cls-1" d="M205.93,74.95v-14.22h3.97l.24,1.46c.41-.47.88-.83,1.39-1.08s1.03-.42,1.54-.51.96-.13,1.33-.13c1.35,0,2.41.3,3.17.9.76.6,1.31,1.41,1.63,2.42.32,1.01.49,2.11.49,3.32v7.85h-4.26v-7.39c0-.38-.04-.75-.11-1.12-.07-.37-.19-.71-.36-1.03-.17-.31-.41-.57-.71-.75-.31-.19-.7-.28-1.19-.28-.63,0-1.16.15-1.59.46-.43.31-.75.71-.94,1.23s-.3,1.08-.3,1.71v7.18h-4.29Z"/>
      <path class="cls-1" d="M228.81,75.17c-1.44,0-2.68-.29-3.72-.88-1.04-.58-1.85-1.42-2.41-2.52-.57-1.1-.85-2.39-.85-3.88s.29-2.85.88-3.95c.58-1.11,1.41-1.96,2.47-2.56,1.06-.6,2.32-.9,3.78-.9,1.2,0,2.28.22,3.22.66s1.7,1.07,2.27,1.9c.57.83.88,1.84.96,3.05h-4.15c-.14-.58-.42-1-.82-1.28-.4-.28-.89-.42-1.47-.42-.74,0-1.32.18-1.74.55-.42.37-.72.82-.89,1.36-.17.54-.26,1.07-.26,1.59,0,.58.09,1.12.28,1.65.19.52.49.94.92,1.27.42.32.97.49,1.63.49.61,0,1.13-.14,1.55-.43.42-.29.7-.71.82-1.27h4.26c-.05,1.22-.39,2.25-1.01,3.08-.62.83-1.42,1.45-2.41,1.88-.99.42-2.09.63-3.29.63Z"/>
      <path class="cls-1" d="M244.21,75.17c-1.47,0-2.75-.3-3.82-.89-1.07-.59-1.89-1.43-2.47-2.52-.58-1.09-.86-2.37-.86-3.84s.3-2.77.89-3.89c.59-1.11,1.42-1.99,2.5-2.62s2.33-.94,3.79-.94c1.06,0,2,.17,2.82.51s1.52.83,2.1,1.46c.58.63,1.02,1.38,1.32,2.24.3.86.45,1.81.45,2.83-.02.27-.04.54-.05.8-.02.26-.06.53-.13.8h-9.44c.05.45.19.86.4,1.24s.52.67.92.89.9.32,1.51.32c.43,0,.82-.05,1.17-.15.35-.1.64-.24.88-.43.23-.19.39-.4.46-.63h4.21c-.23,1.13-.68,2.05-1.35,2.77-.67.71-1.46,1.23-2.37,1.56s-1.89.5-2.91.5ZM241.38,66.21h5.48c0-.38-.09-.75-.28-1.11-.19-.36-.48-.65-.88-.88-.4-.22-.91-.34-1.54-.34s-1.12.12-1.54.35c-.41.23-.72.53-.92.89-.2.36-.31.72-.32,1.08Z"/>
    </g>
    <polygon class="cls-2" points="57.61 59.09 57.61 0 42.77 0 42.77 33.38 57.61 59.09"/>
  </g>
</svg>